<svg width="120" height="34" viewBox="0 0 120 34" fill="none" xmlns="http://www.w3.org/2000/svg">
<g clip-path="url(#clip0_14354_2891)">
<path d="M35.3492 13.6625L29.424 3.40225C29.3053 3.19493 29.0846 3.06787 28.8456 3.06787H9.65579C9.41671 3.06787 9.19602 3.19493 9.07732 3.40225L3.1522 13.6625C3.00006 13.925 3.0452 14.2561 3.2592 14.4701L4.66524 15.8761C4.97621 16.1871 5.49784 16.1185 5.71685 15.7373L10.9515 6.67076C11.0702 6.46345 11.2909 6.33639 11.53 6.33639H26.9681C27.2071 6.33639 27.4278 6.46178 27.5465 6.66909L31.4855 13.4937L31.5925 13.6793C31.8499 14.1257 31.5273 14.6824 31.0123 14.6824H28.8121C28.5731 14.6824 28.3524 14.5553 28.232 14.348L27.7388 13.4937L25.669 9.91085C25.5503 9.70354 25.3296 9.57648 25.0905 9.57648H13.4025C13.1634 9.57648 12.9427 9.70354 12.824 9.91085L7.91035 18.4207C7.75821 18.6832 7.80335 19.0142 8.01735 19.2282L18.7775 29.9884C19.0384 30.2492 19.4613 30.2492 19.7238 29.9884L28.548 21.1642C28.9693 20.7429 28.6717 20.0224 28.0748 20.0224H25.343C25.1658 20.0224 24.9952 20.0926 24.8699 20.218L19.7221 25.364C19.4613 25.6248 19.0384 25.6248 18.7759 25.364L12.0917 18.6798C11.8777 18.4658 11.8342 18.1348 11.9847 17.8723L14.6931 13.1794C14.8119 12.9721 15.0342 12.845 15.2716 12.845H23.2231C23.4621 12.845 23.6828 12.9721 23.8015 13.1794L25.6874 16.4462C25.8061 16.6535 26.0268 16.7806 26.2659 16.7806H32.6491C32.8263 16.7806 32.9968 16.7104 33.1222 16.585L35.2388 14.4684C35.4528 14.2544 35.4963 13.9234 35.3458 13.6609L35.3492 13.6625Z" fill="url(#paint0_linear_14354_2891)"/>
<path d="M21.2183 16.0066H17.2843C17.0453 16.0066 16.8246 16.1337 16.7059 16.341L15.9452 17.6584C15.793 17.9209 15.8382 18.2519 16.0522 18.4659L17.2024 19.6162L18.779 21.1927C19.0398 21.4536 19.4628 21.4536 19.7253 21.1927L22.4521 18.4659C22.6661 18.2519 22.7096 17.9209 22.5591 17.6584L21.7984 16.341C21.6797 16.1337 21.4573 16.0066 21.2199 16.0066H21.2183Z" fill="url(#paint1_linear_14354_2891)"/>
</g>
<path d="M43.1133 16.6115C43.1133 12.0222 45.8318 9.22681 49.5534 9.22681C52.648 9.22681 55.0388 11.1645 55.5203 13.9599H53.2649C52.745 12.283 51.4626 11.2314 49.5734 11.2314C47.1542 11.2314 45.2934 13.1306 45.2934 16.6015C45.2934 20.0723 47.1258 21.9715 49.6604 21.9715C51.9358 21.9715 53.4488 20.5254 53.4973 18.2315H49.978V16.4192H55.6473V18.0677C55.6473 21.7024 53.1312 23.9778 49.6503 23.9778C45.7465 23.9778 43.115 21.1523 43.115 16.6132L43.1133 16.6115Z" fill="#202020"/>
<path d="M60.2115 23.784H58.0898V9.41919H60.2115V23.784Z" fill="#202020"/>
<path d="M62.3203 20.7375C62.3203 18.2882 64.4319 17.7482 66.4649 17.5175C68.3641 17.2951 69.1834 17.3052 69.1834 16.5445V16.4859C69.1834 15.2905 68.4695 14.5967 67.1203 14.5967C65.7711 14.5967 64.9218 15.339 64.6242 16.0713L62.6279 15.5514C63.3602 13.6237 65.1725 12.8713 67.0918 12.8713C68.8273 12.8713 71.305 13.5167 71.305 16.6314V23.7854H69.2519V22.3108H69.1466C68.732 23.15 67.7104 24.0261 65.965 24.0261C63.9119 24.0261 62.3203 22.8591 62.3203 20.7392V20.7375ZM69.1951 19.8982V18.5189C68.8774 18.8266 67.2373 19.0004 66.5819 19.0874C65.3865 19.2512 64.4035 19.6558 64.4035 20.7643C64.4035 21.7858 65.2511 22.3158 66.4381 22.3158C68.1635 22.3158 69.1951 21.1588 69.1951 19.8966V19.8982Z" fill="#202020"/>
<path d="M74.0407 13.0052H76.0553L76.1038 15.0198C76.6539 13.5251 77.8593 12.8213 79.14 12.8213C80.5477 12.8213 81.4722 13.6606 81.8969 15.0867C82.4469 13.6305 83.7761 12.8213 85.3092 12.8213C87.2185 12.8213 88.7215 14.0652 88.7215 16.5128V23.7821H86.5915V16.7251C86.5915 15.289 85.6753 14.6821 84.5769 14.6821C83.2377 14.6821 82.4269 15.5983 82.4269 16.8806V23.7838H80.3354V16.5914C80.3354 15.4445 79.5061 14.6821 78.3692 14.6821C77.2323 14.6821 76.1607 15.5113 76.1607 17.0829V23.7838H74.0391V13.0052H74.0407Z" fill="#202020"/>
<path d="M95.631 9.41919H98.3311L103.537 23.784H101.157L99.8358 19.9955H94.1865L92.9042 23.784H90.5234L95.6327 9.41919H95.631ZM99.1888 18.1631L98.3595 15.7907C97.9733 14.6438 97.5403 13.1776 96.9719 11.1446C96.4135 13.1976 95.9687 14.6923 95.6126 15.7907L94.8118 18.1631H99.1888Z" fill="#202020"/>
<path d="M105.502 9.41919H110.649C113.975 9.41919 115.623 11.28 115.623 13.9316C115.623 15.8593 114.745 17.3255 113.002 17.9809L116.163 23.784H113.667L110.755 18.357H107.699V23.784H105.5V9.41919H105.502ZM110.419 16.4762C112.52 16.4762 113.398 15.5416 113.398 13.9316C113.398 12.3216 112.52 11.3001 110.4 11.3001H107.702V16.4762H110.42H110.419Z" fill="#202020"/>
<defs>
<linearGradient id="paint0_linear_14354_2891" x1="17.0054" y1="0.894434" x2="20.2287" y2="19.708" gradientUnits="userSpaceOnUse">
<stop stop-color="#E65F6E"/>
<stop offset="1" stop-color="#DA0E64"/>
</linearGradient>
<linearGradient id="paint1_linear_14354_2891" x1="16.3414" y1="1.0082" x2="19.5648" y2="19.8218" gradientUnits="userSpaceOnUse">
<stop stop-color="#E65F6E"/>
<stop offset="1" stop-color="#DA0E64"/>
</linearGradient>
<clipPath id="clip0_14354_2891">
<rect width="32.3759" height="27.1178" fill="white" transform="translate(3.06641 3.06812)"/>
</clipPath>
</defs>
</svg>
