<svg width="24" height="24" viewBox="0 0 24 24" fill="none" xmlns="http://www.w3.org/2000/svg">
  <path d="M20.317 4.37C18.7873 3.68021 17.147 3.16619 15.4319 2.85919C15.4319 2.85919 15.4319 2.85919 15.4269 2.85919C15.2604 3.15179 15.0679 3.54031 14.9346 3.85003C13.1088 3.56553 11.2925 3.56553 9.50096 3.85003C9.36764 3.54031 9.16819 3.15179 9.00152 2.85919C7.28621 3.16619 5.64596 3.68021 4.11624 4.37C0.594803 9.59039 -0.364091 14.6739 0.113924 19.691C2.10361 21.2159 4.02416 22.126 5.91179 22.7417C6.38637 22.0611 6.8053 21.3368 7.16099 20.5785C6.48851 20.3349 5.84326 20.0217 5.23426 19.6466C5.39932 19.5243 5.56026 19.3967 5.7165 19.2646C9.23921 20.9842 13.2558 20.9842 16.7387 19.2646C16.8957 19.3967 17.0559 19.5243 17.221 19.6466C16.612 20.0217 15.9667 20.3349 15.2942 20.5785C15.6499 21.3368 16.0681 22.0611 16.5434 22.7417C18.431 22.126 20.3516 21.2159 22.3413 19.691C22.9081 13.8812 21.4308 8.84339 20.317 4.37ZM7.50073 16.6868C6.41326 16.6868 5.52249 15.7055 5.52249 14.5194C5.52249 13.3334 6.3927 12.352 7.50073 12.352C8.60876 12.352 9.47952 13.3334 9.47952 14.5194C9.47952 15.7055 8.60876 16.6868 7.50073 16.6868ZM15.9545 16.6868C14.867 16.6868 13.9762 15.7055 13.9762 14.5194C13.9762 13.3334 14.8464 12.352 15.9545 12.352C17.0625 12.352 17.9333 13.3334 17.9333 14.5194C17.9333 15.7055 17.0625 16.6868 15.9545 16.6868Z" fill="currentColor"/>
</svg>
