<svg width="24" height="24" viewBox="0 0 24 24" fill="none" xmlns="http://www.w3.org/2000/svg">
  <path d="M12 0C5.375 0 0 5.375 0 12C0 18.625 5.375 24 12 24C18.625 24 24 18.625 24 12C24 5.375 18.625 0 12 0ZM19.902 5.541C21.313 7.279 22.125 9.457 22.137 11.754C21.844 11.684 18.463 10.944 15.059 11.375C14.961 11.152 14.87 10.922 14.766 10.691C14.492 10.062 14.191 9.434 13.875 8.828C17.695 7.395 19.541 5.875 19.902 5.541ZM12 1.875C14.52 1.875 16.836 2.828 18.574 4.43C18.266 4.738 16.613 6.125 12.922 7.418C11.316 4.574 9.539 2.23 9.195 1.77C10.109 1.793 11.055 1.875 12 1.875ZM7.336 2.387C7.66 2.816 9.398 5.176 11.023 7.965C6.437 9.152 2.391 9.129 1.941 9.129C2.598 6.129 4.633 3.629 7.336 2.387ZM1.863 12.012V11.719C2.297 11.73 7.148 11.789 12.141 10.359C12.539 11.105 12.906 11.863 13.242 12.621C13.078 12.668 12.906 12.715 12.742 12.766C7.559 14.395 4.699 19.242 4.316 19.906C2.79 17.996 1.863 15.129 1.863 12.012ZM12 22.137C9.758 22.137 7.664 21.367 5.988 20.07C6.293 19.43 8.449 15.234 14.16 13.27C14.184 13.258 14.195 13.258 14.219 13.246C15.684 16.941 16.278 20.047 16.453 21.023C15.047 21.754 13.559 22.137 12 22.137ZM18.238 20.07C18.117 19.371 17.566 16.429 16.207 12.793C19.406 12.281 22.16 13.176 22.465 13.281C22.008 16.148 20.465 18.641 18.238 20.07Z" fill="currentColor"/>
</svg>
