<svg width="24" height="24" viewBox="0 0 24 24" fill="none" xmlns="http://www.w3.org/2000/svg">
  <path d="M12 5.838C8.597 5.838 5.838 8.597 5.838 12C5.838 15.403 8.597 18.162 12 18.162C15.403 18.162 18.162 15.403 18.162 12C18.162 8.597 15.403 5.838 12 5.838ZM12 16.0002C9.791 16.0002 7.999 14.209 7.999 12C7.999 9.791 9.791 7.9998 12 7.9998C14.209 7.9998 16.001 9.791 16.001 12C16.001 14.209 14.209 16.0002 12 16.0002Z" fill="currentColor"/>
  <path d="M18.406 7.035C19.2015 7.035 19.846 6.39044 19.846 5.595C19.846 4.79956 19.2015 4.155 18.406 4.155C17.6106 4.155 16.966 4.79956 16.966 5.595C16.966 6.39044 17.6106 7.035 18.406 7.035Z" fill="currentColor"/>
  <path d="M22.809 4.132C22.528 3.342 22.099 2.624 21.541 2.067C20.984 1.509 20.266 1.08 19.476 0.799C18.555 0.48 17.589 0.312 16.599 0.293C15.289 0.245 14.904 0.23 12.005 0.23C9.106 0.23 8.721 0.23 7.401 0.293C6.413 0.311 5.447 0.479 4.525 0.799C3.734 1.08 3.016 1.509 2.459 2.067C1.901 2.624 1.472 3.341 1.191 4.132C0.872 5.052 0.704 6.018 0.686 7.007C0.637 8.316 0.622 8.701 0.622 11.6C0.622 14.499 0.622 14.882 0.686 16.203C0.704 17.193 0.872 18.159 1.191 19.08C1.472 19.87 1.902 20.587 2.459 21.144C3.016 21.702 3.734 22.131 4.524 22.412C5.445 22.741 6.411 22.919 7.402 22.949C8.711 22.997 9.096 23.012 12.005 23.012C14.914 23.012 15.299 23.012 16.619 22.949C17.608 22.93 18.575 22.762 19.496 22.443C20.287 22.162 21.005 21.733 21.562 21.175C22.12 20.618 22.549 19.899 22.83 19.108C23.149 18.188 23.317 17.222 23.335 16.231C23.384 14.923 23.399 14.538 23.399 11.639C23.399 8.74 23.399 8.357 23.335 7.036C23.32 6.033 23.149 5.062 22.809 4.132ZM21.211 16.107C21.202 16.9 21.066 17.684 20.798 18.433C20.617 18.953 20.331 19.427 19.959 19.828C19.555 20.201 19.08 20.487 18.558 20.669C17.818 20.937 17.034 21.073 16.242 21.083C14.951 21.13 14.597 21.142 11.715 21.142C8.833 21.142 8.495 21.142 7.188 21.083C6.395 21.073 5.612 20.937 4.872 20.669C4.347 20.491 3.869 20.204 3.47 19.828C3.098 19.429 2.812 18.956 2.631 18.433C2.361 17.695 2.224 16.911 2.213 16.119C2.166 14.829 2.154 14.475 2.154 11.593C2.154 8.711 2.154 8.373 2.213 7.067C2.223 6.273 2.358 5.49 2.626 4.752C2.806 4.228 3.104 3.747 3.471 3.351C3.862 2.968 4.339 2.677 4.862 2.5C5.602 2.232 6.385 2.096 7.177 2.086C8.469 2.04 8.822 2.027 11.704 2.027C14.586 2.027 14.924 2.027 16.231 2.086C17.024 2.095 17.807 2.231 18.548 2.5C19.072 2.682 19.548 2.969 19.948 3.351C20.318 3.752 20.604 4.229 20.786 4.752C21.055 5.491 21.192 6.274 21.202 7.067C21.249 8.358 21.262 8.711 21.262 11.593C21.262 14.475 21.249 14.817 21.211 16.107Z" fill="currentColor"/>
</svg>
