<svg width="24" height="24" viewBox="0 0 24 24" fill="none" xmlns="http://www.w3.org/2000/svg">
  <path d="M23.32 4.62C22.464 5.01 21.536 5.27 20.566 5.398C21.565 4.805 22.328 3.861 22.688 2.74C21.754 3.29 20.724 3.69 19.64 3.913C18.768 2.977 17.53 2.4 16.161 2.4C13.526 2.4 11.396 4.53 11.396 7.164C11.396 7.552 11.44 7.928 11.528 8.287C7.54 8.084 4.003 6.2 1.632 3.305C1.217 4.037 0.981 4.805 0.981 5.639C0.981 7.193 1.828 8.558 3.131 9.354C2.347 9.33 1.601 9.105 0.949 8.743C0.949 8.763 0.949 8.785 0.949 8.807C0.949 11.108 2.591 13.015 4.785 13.468C4.382 13.581 3.956 13.644 3.515 13.644C3.207 13.644 2.905 13.612 2.616 13.554C3.227 15.427 5.001 16.791 7.102 16.832C5.455 18.095 3.389 18.847 1.151 18.847C0.759 18.847 0.377 18.822 0 18.774C2.127 20.121 4.654 20.901 7.37 20.901C16.149 20.901 20.977 13.727 20.977 7.52C20.977 7.303 20.971 7.088 20.962 6.874C21.908 6.2 22.691 5.367 23.32 4.62Z" fill="currentColor"/>
</svg>
