<svg width="24" height="24" viewBox="0 0 24 24" fill="none" xmlns="http://www.w3.org/2000/svg">
  <path d="M23.498 6.186C23.2393 5.2612 22.4675 4.53113 21.5265 4.2915C19.651 3.813 12.0005 3.813 12.0005 3.813C12.0005 3.813 4.35004 3.813 2.47454 4.2915C1.53356 4.53113 0.761779 5.2612 0.503079 6.186C0.0170786 8.03 0.0170786 11.997 0.0170786 11.997C0.0170786 11.997 0.0170786 15.964 0.503079 17.808C0.761779 18.7328 1.53356 19.4629 2.47454 19.7025C4.35004 20.181 12.0005 20.181 12.0005 20.181C12.0005 20.181 19.651 20.181 21.5265 19.7025C22.4675 19.4629 23.2393 18.7328 23.498 17.808C23.984 15.964 23.984 11.997 23.984 11.997C23.984 11.997 23.984 8.03 23.498 6.186ZM9.60156 15.598V8.395L15.8651 11.997L9.60156 15.598Z" fill="currentColor"/>
</svg>
